<mxfile host="app.diagrams.net" modified="2023-10-31T08:12:39.119Z" agent="Mozilla/5.0 (Windows NT 10.0; Win64; x64) AppleWebKit/537.36 (KHTML, like Gecko) Chrome/118.0.0.0 Safari/537.36" etag="Yk9KP8CsauEZ_Hm8LVQ9" version="22.0.8" type="device">
  <diagram name="Página-1" id="CuYujUkR5aBB6h94H3aj">
    <mxGraphModel dx="555" dy="875" grid="1" gridSize="10" guides="1" tooltips="1" connect="1" arrows="1" fold="1" page="1" pageScale="1" pageWidth="827" pageHeight="1169" background="#ffffff" math="0" shadow="0">
      <root>
        <mxCell id="0" />
        <mxCell id="1" parent="0" />
        <mxCell id="kOJmDCJgCP2AXKQWK2o6-16" style="edgeStyle=orthogonalEdgeStyle;rounded=0;orthogonalLoop=1;jettySize=auto;html=1;entryX=0;entryY=0.5;entryDx=0;entryDy=0;exitX=0.729;exitY=1;exitDx=0;exitDy=0;exitPerimeter=0;" edge="1" parent="1" source="kOJmDCJgCP2AXKQWK2o6-1" target="kOJmDCJgCP2AXKQWK2o6-15">
          <mxGeometry relative="1" as="geometry" />
        </mxCell>
        <mxCell id="kOJmDCJgCP2AXKQWK2o6-20" style="edgeStyle=orthogonalEdgeStyle;rounded=0;orthogonalLoop=1;jettySize=auto;html=1;entryX=1;entryY=0.5;entryDx=0;entryDy=0;" edge="1" parent="1" source="kOJmDCJgCP2AXKQWK2o6-1" target="kOJmDCJgCP2AXKQWK2o6-17">
          <mxGeometry relative="1" as="geometry">
            <mxPoint x="310" y="170" as="targetPoint" />
            <Array as="points">
              <mxPoint x="400" y="210" />
            </Array>
          </mxGeometry>
        </mxCell>
        <mxCell id="kOJmDCJgCP2AXKQWK2o6-22" style="edgeStyle=orthogonalEdgeStyle;rounded=0;orthogonalLoop=1;jettySize=auto;html=1;" edge="1" parent="1">
          <mxGeometry relative="1" as="geometry">
            <mxPoint x="400" y="410.0000000000002" as="sourcePoint" />
            <mxPoint x="300" y="519.9999999999998" as="targetPoint" />
            <Array as="points">
              <mxPoint x="400" y="520" />
            </Array>
          </mxGeometry>
        </mxCell>
        <mxCell id="kOJmDCJgCP2AXKQWK2o6-23" style="edgeStyle=orthogonalEdgeStyle;rounded=0;orthogonalLoop=1;jettySize=auto;html=1;entryX=0;entryY=0.5;entryDx=0;entryDy=0;exitX=0.726;exitY=0.011;exitDx=0;exitDy=0;exitPerimeter=0;" edge="1" parent="1" source="kOJmDCJgCP2AXKQWK2o6-1" target="kOJmDCJgCP2AXKQWK2o6-13">
          <mxGeometry relative="1" as="geometry">
            <mxPoint x="440.2500000000001" y="150" as="targetPoint" />
            <mxPoint x="479.94000000000005" y="270" as="sourcePoint" />
            <Array as="points">
              <mxPoint x="480" y="210" />
            </Array>
          </mxGeometry>
        </mxCell>
        <mxCell id="kOJmDCJgCP2AXKQWK2o6-1" value="SISTEMA INFORMÁTICO" style="rounded=0;whiteSpace=wrap;html=1;fillColor=#1ba1e2;strokeColor=#006EAF;fontColor=#ffffff;" vertex="1" parent="1">
          <mxGeometry x="320" y="330" width="220" height="80" as="geometry" />
        </mxCell>
        <mxCell id="kOJmDCJgCP2AXKQWK2o6-4" value="Sistemas Operativos" style="rounded=1;whiteSpace=wrap;html=1;fillColor=#DB6E00;strokeColor=#B20000;fontColor=#ffffff;" vertex="1" parent="1">
          <mxGeometry x="730" y="180" width="120" height="60" as="geometry" />
        </mxCell>
        <mxCell id="kOJmDCJgCP2AXKQWK2o6-8" value="Aplicaciones informáticas" style="rounded=1;whiteSpace=wrap;html=1;fillColor=#DB6E00;strokeColor=#B20000;fontColor=#ffffff;" vertex="1" parent="1">
          <mxGeometry x="730" y="90" width="120" height="60" as="geometry" />
        </mxCell>
        <mxCell id="kOJmDCJgCP2AXKQWK2o6-9" value="Lenguajes de programación" style="rounded=1;whiteSpace=wrap;html=1;fillColor=#DB6E00;strokeColor=#B20000;fontColor=#ffffff;" vertex="1" parent="1">
          <mxGeometry x="730" y="270" width="120" height="60" as="geometry" />
        </mxCell>
        <mxCell id="kOJmDCJgCP2AXKQWK2o6-25" style="edgeStyle=orthogonalEdgeStyle;rounded=0;orthogonalLoop=1;jettySize=auto;html=1;entryX=0;entryY=0.5;entryDx=0;entryDy=0;" edge="1" parent="1" source="kOJmDCJgCP2AXKQWK2o6-13" target="kOJmDCJgCP2AXKQWK2o6-4">
          <mxGeometry relative="1" as="geometry" />
        </mxCell>
        <mxCell id="kOJmDCJgCP2AXKQWK2o6-26" style="edgeStyle=orthogonalEdgeStyle;rounded=0;orthogonalLoop=1;jettySize=auto;html=1;entryX=0;entryY=0.5;entryDx=0;entryDy=0;" edge="1" parent="1" source="kOJmDCJgCP2AXKQWK2o6-13" target="kOJmDCJgCP2AXKQWK2o6-8">
          <mxGeometry relative="1" as="geometry">
            <Array as="points">
              <mxPoint x="700" y="180" />
              <mxPoint x="700" y="120" />
            </Array>
          </mxGeometry>
        </mxCell>
        <mxCell id="kOJmDCJgCP2AXKQWK2o6-13" value="Software" style="shape=hexagon;perimeter=hexagonPerimeter2;whiteSpace=wrap;html=1;fixedSize=1;fillColor=#008a00;strokeColor=#005700;fontColor=#ffffff;" vertex="1" parent="1">
          <mxGeometry x="540" y="170" width="120" height="80" as="geometry" />
        </mxCell>
        <mxCell id="kOJmDCJgCP2AXKQWK2o6-15" value="Firmware" style="shape=hexagon;perimeter=hexagonPerimeter2;whiteSpace=wrap;html=1;fixedSize=1;fillColor=#008a00;strokeColor=#005700;fontColor=#ffffff;" vertex="1" parent="1">
          <mxGeometry x="540" y="480" width="120" height="80" as="geometry" />
        </mxCell>
        <mxCell id="kOJmDCJgCP2AXKQWK2o6-17" value="Hardware" style="shape=hexagon;perimeter=hexagonPerimeter2;whiteSpace=wrap;html=1;fixedSize=1;fillColor=#008a00;strokeColor=#005700;fontColor=#ffffff;" vertex="1" parent="1">
          <mxGeometry x="200" y="170" width="120" height="80" as="geometry" />
        </mxCell>
        <mxCell id="kOJmDCJgCP2AXKQWK2o6-29" style="edgeStyle=orthogonalEdgeStyle;rounded=0;orthogonalLoop=1;jettySize=auto;html=1;exitX=0.872;exitY=0.867;exitDx=0;exitDy=0;exitPerimeter=0;" edge="1" parent="1" source="kOJmDCJgCP2AXKQWK2o6-13">
          <mxGeometry relative="1" as="geometry">
            <mxPoint x="650" y="240" as="sourcePoint" />
            <mxPoint x="730" y="300" as="targetPoint" />
            <Array as="points">
              <mxPoint x="660" y="239" />
              <mxPoint x="700" y="240" />
              <mxPoint x="700" y="300" />
            </Array>
          </mxGeometry>
        </mxCell>
        <mxCell id="kOJmDCJgCP2AXKQWK2o6-35" style="edgeStyle=orthogonalEdgeStyle;rounded=0;orthogonalLoop=1;jettySize=auto;html=1;entryX=1;entryY=0.5;entryDx=0;entryDy=0;exitX=0.126;exitY=0.124;exitDx=0;exitDy=0;exitPerimeter=0;" edge="1" parent="1" source="kOJmDCJgCP2AXKQWK2o6-17" target="kOJmDCJgCP2AXKQWK2o6-32">
          <mxGeometry relative="1" as="geometry">
            <Array as="points">
              <mxPoint x="160" y="180" />
              <mxPoint x="160" y="120" />
            </Array>
          </mxGeometry>
        </mxCell>
        <mxCell id="kOJmDCJgCP2AXKQWK2o6-36" style="edgeStyle=orthogonalEdgeStyle;rounded=0;orthogonalLoop=1;jettySize=auto;html=1;exitX=0.118;exitY=0.873;exitDx=0;exitDy=0;exitPerimeter=0;entryX=1;entryY=0.5;entryDx=0;entryDy=0;" edge="1" parent="1" source="kOJmDCJgCP2AXKQWK2o6-17">
          <mxGeometry relative="1" as="geometry">
            <mxPoint x="130.00000000000023" y="300" as="targetPoint" />
            <Array as="points">
              <mxPoint x="160" y="240" />
              <mxPoint x="160" y="300" />
            </Array>
          </mxGeometry>
        </mxCell>
        <mxCell id="kOJmDCJgCP2AXKQWK2o6-32" value="Redes" style="rounded=1;whiteSpace=wrap;html=1;fillColor=#DB6E00;strokeColor=#B20000;fontColor=#ffffff;" vertex="1" parent="1">
          <mxGeometry x="10" y="90" width="120" height="60" as="geometry" />
        </mxCell>
        <mxCell id="kOJmDCJgCP2AXKQWK2o6-33" value="Periféricos" style="rounded=1;whiteSpace=wrap;html=1;fillColor=#DB6E00;strokeColor=#B20000;fontColor=#ffffff;" vertex="1" parent="1">
          <mxGeometry x="10" y="180" width="120" height="60" as="geometry" />
        </mxCell>
        <mxCell id="kOJmDCJgCP2AXKQWK2o6-34" value="CPU" style="rounded=1;whiteSpace=wrap;html=1;fillColor=#DB6E00;strokeColor=#B20000;fontColor=#ffffff;" vertex="1" parent="1">
          <mxGeometry x="10" y="270" width="120" height="60" as="geometry" />
        </mxCell>
        <mxCell id="kOJmDCJgCP2AXKQWK2o6-37" style="edgeStyle=orthogonalEdgeStyle;rounded=0;orthogonalLoop=1;jettySize=auto;html=1;entryX=1.01;entryY=0.506;entryDx=0;entryDy=0;entryPerimeter=0;" edge="1" parent="1" source="kOJmDCJgCP2AXKQWK2o6-17" target="kOJmDCJgCP2AXKQWK2o6-33">
          <mxGeometry relative="1" as="geometry" />
        </mxCell>
        <mxCell id="kOJmDCJgCP2AXKQWK2o6-42" value="Personal informático" style="shape=hexagon;perimeter=hexagonPerimeter2;whiteSpace=wrap;html=1;fixedSize=1;fillColor=#008a00;strokeColor=#005700;fontColor=#ffffff;" vertex="1" parent="1">
          <mxGeometry x="200" y="480" width="120" height="80" as="geometry" />
        </mxCell>
        <mxCell id="kOJmDCJgCP2AXKQWK2o6-43" style="edgeStyle=orthogonalEdgeStyle;rounded=0;orthogonalLoop=1;jettySize=auto;html=1;entryX=1;entryY=0.5;entryDx=0;entryDy=0;exitX=0.126;exitY=0.124;exitDx=0;exitDy=0;exitPerimeter=0;" edge="1" parent="1" source="kOJmDCJgCP2AXKQWK2o6-42" target="kOJmDCJgCP2AXKQWK2o6-45">
          <mxGeometry relative="1" as="geometry">
            <Array as="points">
              <mxPoint x="160" y="490" />
              <mxPoint x="160" y="430" />
            </Array>
          </mxGeometry>
        </mxCell>
        <mxCell id="kOJmDCJgCP2AXKQWK2o6-44" style="edgeStyle=orthogonalEdgeStyle;rounded=0;orthogonalLoop=1;jettySize=auto;html=1;exitX=0.118;exitY=0.873;exitDx=0;exitDy=0;exitPerimeter=0;entryX=1;entryY=0.5;entryDx=0;entryDy=0;" edge="1" parent="1" source="kOJmDCJgCP2AXKQWK2o6-42" target="kOJmDCJgCP2AXKQWK2o6-47">
          <mxGeometry relative="1" as="geometry">
            <mxPoint x="140" y="500" as="targetPoint" />
            <Array as="points">
              <mxPoint x="160" y="550" />
              <mxPoint x="160" y="610" />
            </Array>
          </mxGeometry>
        </mxCell>
        <mxCell id="kOJmDCJgCP2AXKQWK2o6-45" value="Técnicos en computación" style="rounded=1;whiteSpace=wrap;html=1;fillColor=#DB6E00;strokeColor=#B20000;fontColor=#ffffff;" vertex="1" parent="1">
          <mxGeometry x="10" y="400" width="120" height="60" as="geometry" />
        </mxCell>
        <mxCell id="kOJmDCJgCP2AXKQWK2o6-46" value="Desarrolladores" style="rounded=1;whiteSpace=wrap;html=1;fillColor=#DB6E00;strokeColor=#B20000;fontColor=#ffffff;" vertex="1" parent="1">
          <mxGeometry x="10" y="490" width="120" height="60" as="geometry" />
        </mxCell>
        <mxCell id="kOJmDCJgCP2AXKQWK2o6-47" value="Usuarios" style="rounded=1;whiteSpace=wrap;html=1;fillColor=#DB6E00;strokeColor=#B20000;fontColor=#ffffff;" vertex="1" parent="1">
          <mxGeometry x="10" y="580" width="120" height="60" as="geometry" />
        </mxCell>
        <mxCell id="kOJmDCJgCP2AXKQWK2o6-48" style="edgeStyle=orthogonalEdgeStyle;rounded=0;orthogonalLoop=1;jettySize=auto;html=1;entryX=1.01;entryY=0.506;entryDx=0;entryDy=0;entryPerimeter=0;" edge="1" parent="1" source="kOJmDCJgCP2AXKQWK2o6-42" target="kOJmDCJgCP2AXKQWK2o6-46">
          <mxGeometry relative="1" as="geometry" />
        </mxCell>
      </root>
    </mxGraphModel>
  </diagram>
</mxfile>
